<?xml version="1.0" standalone="no"?>
<!DOCTYPE svg PUBLIC "-//W3C//DTD SVG 20010904//EN"
 "http://www.w3.org/TR/2001/REC-SVG-20010904/DTD/svg10.dtd">
<svg version="1.0" xmlns="http://www.w3.org/2000/svg"
 width="200.000000pt" height="200.000000pt" viewBox="0 0 200.000000 200.000000"
 preserveAspectRatio="xMidYMid meet">
<metadata>
Created by potrace 1.11, written by Peter Selinger 2001-2013
</metadata>
<g transform="translate(0.000000,200.000000) scale(0.100000,-0.100000)"
fill="#000000" stroke="none">
<path d="M881 1659 c-49 -19 -100 -71 -130 -130 -39 -78 -47 -132 -27 -188
l16 -43 -38 -47 c-83 -99 -172 -250 -211 -354 -54 -147 0 -320 119 -382 17 -9
30 -19 30 -23 0 -4 -20 -13 -44 -20 -102 -27 -143 -181 -63 -237 18 -12 21
-25 20 -82 0 -39 -8 -85 -17 -107 -9 -21 -16 -40 -16 -42 0 -2 43 -4 96 -4
l96 0 -6 43 c-7 46 4 99 21 104 14 5 19 -14 28 -89 l6 -58 320 0 319 0 0 38 1
37 20 -38 19 -37 76 0 c42 0 74 3 72 8 -36 69 -68 146 -75 183 -9 41 -7 48 13
72 74 86 38 204 -78 256 l-59 27 20 25 c42 54 56 109 55 214 -1 107 -23 182
-82 284 -80 139 -220 283 -306 314 -13 5 -16 12 -11 25 4 9 10 42 12 73 12
132 -87 222 -196 178z m-6 -59 c-3 -5 -13 -10 -21 -10 -8 0 -12 5 -9 10 3 6
13 10 21 10 8 0 12 -4 9 -10z m-65 -49 c-11 -21 -29 -36 -35 -29 -3 2 2 14 11
26 19 28 39 30 24 3z m0 -51 c0 -5 -5 -10 -11 -10 -5 0 -7 5 -4 10 3 6 8 10
11 10 2 0 4 -4 4 -10z m-40 -73 c0 -23 -4 -36 -10 -32 -5 3 -10 27 -10 53 0
34 3 43 10 32 5 -8 10 -32 10 -53z m293 -268 c49 -22 55 -86 10 -104 -35 -13
-239 -45 -294 -45 -67 0 -99 20 -102 64 -3 37 35 61 125 81 77 17 228 19 261
4z m-484 -155 c-43 -94 -63 -205 -49 -269 13 -60 31 -90 77 -131 28 -24 33
-35 26 -48 -8 -14 -14 -12 -51 20 -75 64 -104 155 -83 255 11 50 94 239 105
239 2 0 -9 -30 -25 -66z m331 -254 c0 -34 -4 -60 -10 -60 -15 0 -30 45 -30 86
0 27 4 34 20 34 18 0 20 -7 20 -60z m66 36 c3 -13 4 -38 2 -57 -2 -26 -8 -35
-25 -37 -22 -3 -23 0 -23 57 0 54 2 61 20 61 12 0 22 -9 26 -24z m-280 -273
c-8 -8 -36 10 -36 25 0 13 3 12 20 -3 11 -10 18 -20 16 -22z m44 -289 c0 -9
-7 -14 -17 -12 -25 5 -28 28 -4 28 12 0 21 -6 21 -16z"/>
<path d="M942 753 c-2 -50 8 -67 24 -41 4 6 3 8 -4 4 -7 -4 -12 10 -15 41 l-3
48 -2 -52z"/>
</g>
</svg>
